<mxfile host="app.diagrams.net" modified="2023-09-08T06:48:40.078Z" agent="Mozilla/5.0 (Macintosh; Intel Mac OS X 10_15_7) AppleWebKit/537.36 (KHTML, like Gecko) Chrome/116.0.0.0 Safari/537.36" version="21.7.2" etag="ULdEwXidj1uTrEdHBW-Z" type="github">
  <diagram name="Page-1" id="YGNbMYTbncQu2Uc5nlW8">
    <mxGraphModel>
      <root>
        <mxCell id="0" />
        <mxCell id="1" parent="0" />
      </root>
    </mxGraphModel>
  </diagram>
</mxfile>
